Coordinates
version=1
nRows=12
nColumns=24
inDegrees=yes

Units are S.I. units (second, meters, Newtons, ...)
Angles are in degrees.

endheader
time	pelvis_tilt	pelvis_list	pelvis_rotation	pelvis_tx	pelvis_ty	pelvis_tz	hip_flexion_r	hip_adduction_r	hip_rotation_r	knee_angle_r	ankle_angle_r	subtalar_angle_r	mtp_angle_r	hip_flexion_l	hip_adduction_l	hip_rotation_l	knee_angle_l	ankle_angle_l	subtalar_angle_l	mtp_angle_l	lumbar_extension	lumbar_bending	lumbar_rotation
      1.13383333	     -1.80540906	      4.06890405	     -1.63832183	      0.13169498	      0.90443628	      0.33167261	     20.78082982	     -7.31166067	     -7.12128181	    -76.33487845	     -0.47663853	      6.07681725	      6.00728576	     12.52329568	      7.91615936	     -3.64397681	    -20.83156775	     12.74018124	     -6.08486112	      1.22965808	     -6.49983206	     -6.32472230	      1.05526465
      1.13800000	     -1.86363549	      3.89333364	     -1.53172298	      0.13703576	      0.90545767	      0.33145729	     21.49211922	     -7.05516170	     -7.17906762	    -76.05932625	     -0.16447723	      5.74867233	      5.89488361	     11.90650371	      7.77990257	     -3.45418156	    -20.24356285	     12.76867197	     -6.03798350	      1.22495927	     -6.45693553	     -6.10764257	      0.86734120
      1.14216667	     -1.93031232	      3.71856211	     -1.42622384	      0.14236323	      0.90642428	      0.33125895	     22.19669494	     -6.79073207	     -7.22612523	    -75.71928236	      0.23906176	      5.49328467	      5.84490364	     11.31166442	      7.63347577	     -3.30955249	    -19.67550555	     12.77305368	     -5.92427635	      1.22373062	     -6.41453599	     -5.89180746	      0.77500855
      1.14633333	     -1.96648060	      3.52285744	     -1.31214844	      0.14771876	      0.90745254	      0.33106209	     22.83166121	     -6.50286771	     -7.28891802	    -75.27342484	      0.54086193	      5.22162960	      5.73604531	     10.66340235	      7.46942619	     -3.11527172	    -19.06764675	     12.79086784	     -5.87636302	      1.22000197	     -6.39654436	     -5.65085983	      0.58627629
      1.15050000	     -2.02554456	      3.32911835	     -1.19507980	      0.15304005	      0.90839267	      0.33087289	     23.47772289	     -6.21022781	     -7.33967038	    -74.77003705	      0.93076093	      5.01931993	      5.68098357	     10.05965794	      7.29677094	     -2.96265373	    -18.48978252	     12.76986051	     -5.76992979	      1.21830314	     -6.36405069	     -5.41531795	      0.48001463
      1.15466667	     -2.04073089	      3.12658683	     -1.07523469	      0.15839083	      0.90939460	      0.33066930	     24.04309637	     -5.91352126	     -7.40152749	    -74.17247917	      1.22895164	      4.82059740	      5.57505423	      9.38540217	      7.12107243	     -2.76965691	    -17.86625591	     12.77891086	     -5.72291614	      1.21517241	     -6.37124650	     -5.16312328	      0.28830895
      1.15883333	     -2.06522816	      2.92286943	     -0.95194142	      0.16371491	      0.91034002	      0.33047737	     24.59973798	     -5.61092201	     -7.45666405	    -73.51010637	      1.56601077	      4.66762904	      5.47601547	      8.73297954	      6.93702377	     -2.59292850	    -17.25725014	     12.75820954	     -5.65722379	      1.21219881	     -6.37447727	     -4.91235008	      0.13177621
      1.16300000	     -2.07943262	      2.71518277	     -0.82382344	      0.16903437	      0.91126611	      0.33028205	     25.12114287	     -5.30521129	     -7.51366799	    -72.77596343	      1.89215948	      4.53722839	      5.38560567	      8.07111247	      6.74550073	     -2.41811927	    -16.64685315	     12.73318270	     -5.58923252	      1.20994689	     -6.38982776	     -4.65583002	     -0.02016926
      1.16716667	     -2.10762559	      2.50295512	     -0.69151679	      0.17432479	      0.91212448	      0.33010111	     25.63845576	     -4.99035980	     -7.56591949	    -71.97819075	      2.23792244	      4.42859785	      5.33404406	      7.44196455	      6.54057782	     -2.26945145	    -16.06322549	     12.67854268	     -5.49657584	      1.20833726	     -6.39143636	     -4.40208799	     -0.13748875
      1.17133333	     -2.07502410	      2.29759379	     -0.55970419	      0.17964189	      0.91304141	      0.32990032	     26.06111783	     -4.69536695	     -7.62775511	    -71.10556044	      2.50315463	      4.31912534	      5.24411540	      6.72002168	      6.34975857	     -2.07483008	    -15.42454628	     12.67217943	     -5.46016542	      1.20709561	     -6.46066143	     -4.14213799	     -0.33800387
      1.17550000	     -2.08191900	      2.08272823	     -0.41691147	      0.18491435	      0.91384715	      0.32971415	     26.50702337	     -4.38458776	     -7.68702120	    -70.17246295	      2.81782719	      4.23871822	      5.18569866	      6.07385763	      6.13616312	     -1.91848083	    -14.84121450	     12.60284344	     -5.38660402	      1.20607064	     -6.48708947	     -3.88300538	     -0.47544609
      1.17966667	     -2.03608057	      1.88732236	     -0.28101462	      0.19019716	      0.91467553	      0.32951056	     26.87712874	     -4.10434628	     -7.74328312	    -69.18381292	      3.05403638	      4.14180630	      5.09234256	      5.34574783	      5.95049815	     -1.72283772	    -14.20387960	     12.58791399	     -5.36442108	      1.20631020	     -6.57291403	     -3.63295234	     -0.68248068
